<svg width="28" height="27" viewBox="0 0 28 27" fill="none" xmlns="http://www.w3.org/2000/svg">
<path d="M27.5992 26.2244V16.9689C27.5992 12.4201 26.5628 8.94531 20.946 8.94531C18.2379 8.94531 16.4325 10.3352 15.697 11.6619H15.6301V9.35597H10.3142V26.2244H15.8641V17.8533C15.8641 15.6421 16.2988 13.5257 19.174 13.5257C22.0159 13.5257 22.0493 16.0212 22.0493 17.9797V26.1928H27.5992V26.2244Z" fill="black"/>
<path d="M1.28735 9.35547H6.83729V26.2239H1.28735V9.35547Z" fill="black"/>
<path d="M4.06312 0.953125C2.29115 0.953125 0.853516 2.31144 0.853516 3.98565C0.853516 5.65985 2.29115 7.04976 4.06312 7.04976C5.83508 7.04976 7.27272 5.65985 7.27272 3.98565C7.27272 2.31144 5.83508 0.953125 4.06312 0.953125Z" fill="black"/>
</svg>
