<svg width="17" height="17" viewBox="0 0 17 17" fill="none" xmlns="http://www.w3.org/2000/svg">
<g clip-path="url(#clip0_385_11471)">
<path d="M0.829257 16.9997C0.66506 16.9998 0.504543 16.9511 0.368009 16.8599C0.231475 16.7687 0.125058 16.639 0.0622184 16.4873C-0.000620985 16.3356 -0.0170596 16.1687 0.014982 16.0077C0.0470236 15.8466 0.126106 15.6987 0.242225 15.5826L15.5821 0.24279C15.7378 0.0870997 15.9489 -0.000366211 16.1691 -0.000366211C16.3893 -0.000366211 16.6004 0.0870997 16.7561 0.24279C16.9118 0.39848 16.9993 0.609642 16.9993 0.829821C16.9993 1.05 16.9118 1.26116 16.7561 1.41685L1.41629 16.7567C1.33927 16.8339 1.24776 16.8951 1.14702 16.9368C1.04628 16.9785 0.938291 16.9999 0.829257 16.9997Z" fill="white"/>
<path d="M16.1691 16.9997C16.06 16.9999 15.952 16.9785 15.8513 16.9368C15.7506 16.8951 15.659 16.8339 15.582 16.7567L0.24218 1.41685C0.0864894 1.26116 -0.000976562 1.05 -0.000976562 0.829821C-0.000976562 0.609642 0.0864894 0.39848 0.24218 0.24279C0.39787 0.0870997 0.609032 -0.000366211 0.829211 -0.000366211C1.04939 -0.000366211 1.26055 0.0870997 1.41624 0.24279L16.7561 15.5826C16.8722 15.6987 16.9513 15.8466 16.9833 16.0077C17.0154 16.1687 16.9989 16.3356 16.9361 16.4873C16.8733 16.639 16.7668 16.7687 16.6303 16.8599C16.4938 16.9511 16.3333 16.9998 16.1691 16.9997Z" fill="white"/>
</g>
<defs>
<clipPath id="clip0_385_11471">
<rect width="17" height="17" fill="white"/>
</clipPath>
</defs>
</svg>
