<svg width="26" height="25" viewBox="0 0 26 25" fill="none" xmlns="http://www.w3.org/2000/svg">
<path d="M19.6002 0.433838H6.80033C3.28068 0.433838 0.400391 3.15521 0.400391 6.48068V18.575C0.400391 21.8995 3.28068 24.6218 6.80033 24.6218H19.6002C23.1199 24.6218 26.0002 21.8995 26.0002 18.575V6.48068C26.0002 3.15521 23.1199 0.433838 19.6002 0.433838ZM23.8667 18.575C23.8667 20.7972 21.9535 22.6061 19.6002 22.6061H6.80033C4.44804 22.6061 2.53381 20.7972 2.53381 18.575V6.48068C2.53381 4.25788 4.44804 2.44955 6.80033 2.44955H19.6002C21.9535 2.44955 23.8667 4.25788 23.8667 6.48068V18.575Z" fill="black"/>
<path d="M20.1347 7.48777C21.0183 7.48777 21.7346 6.81112 21.7346 5.97643C21.7346 5.14174 21.0183 4.46509 20.1347 4.46509C19.251 4.46509 18.5347 5.14174 18.5347 5.97643C18.5347 6.81112 19.251 7.48777 20.1347 7.48777Z" fill="black"/>
<path d="M13.2005 6.48096C9.66513 6.48096 6.80054 9.18781 6.80054 12.5278C6.80054 15.8666 9.66513 18.5752 13.2005 18.5752C16.7348 18.5752 19.6004 15.8666 19.6004 12.5278C19.6004 9.18781 16.7348 6.48096 13.2005 6.48096ZM13.2005 16.5595C10.8443 16.5595 8.93395 14.7546 8.93395 12.5278C8.93395 10.301 10.8443 8.49667 13.2005 8.49667C15.5566 8.49667 17.467 10.301 17.467 12.5278C17.467 14.7546 15.5566 16.5595 13.2005 16.5595Z" fill="black"/>
</svg>
