<svg width="44" height="44" viewBox="0 0 44 44" fill="none" xmlns="http://www.w3.org/2000/svg">
<g clip-path="url(#clip0_96_2479)">
<path d="M41.7435 7.33398H2.25646C1.01535 7.33398 0 8.34934 0 9.59036V34.4109C0 35.6519 1.01535 36.6674 2.25646 36.6674H41.7436C42.9846 36.6674 44.0001 35.652 44.0001 34.4109V9.59036C44 8.34934 42.9846 7.33398 41.7435 7.33398ZM40.8968 9.02618L23.298 22.2264C22.9816 22.4671 22.4959 22.6178 21.9999 22.6156C21.5041 22.6178 21.0184 22.4671 20.7019 22.2264L3.10312 9.02618H40.8968ZM31.4961 23.0973L41.0859 34.9436C41.0955 34.9554 41.1073 34.9644 41.1175 34.9752H2.88252C2.89266 34.9639 2.90452 34.9554 2.91414 34.9436L12.5039 23.0973C12.7977 22.7341 12.742 22.2015 12.3781 21.907C12.0148 21.6132 11.4823 21.6689 11.1884 22.0322L1.69228 33.7628V10.0839L19.6871 23.58C20.3635 24.0838 21.1864 24.3055 21.9998 24.3078C22.8121 24.306 23.6357 24.0843 24.3126 23.58L42.3074 10.0839V33.7626L32.8115 22.0322C32.5176 21.669 31.9846 21.6131 31.6218 21.907C31.258 22.2008 31.2021 22.7341 31.4961 23.0973Z" fill="black"/>
</g>
<defs>
<clipPath id="clip0_96_2479">
<rect width="44" height="44" fill="white"/>
</clipPath>
</defs>
</svg>
