<svg width="23" height="23" viewBox="0 0 23 23" fill="none" xmlns="http://www.w3.org/2000/svg">
<g clip-path="url(#clip0_254_13232)">
<path d="M19.7995 1.57884C18.6402 0.421637 16.763 0.421637 15.6038 1.57884L14.5535 2.63487L3.37331 13.8091L3.34955 13.833C3.3438 13.8388 3.3438 13.8449 3.33767 13.8449C3.32579 13.8627 3.30797 13.8804 3.29628 13.8982C3.29628 13.9041 3.29015 13.9041 3.29015 13.9101C3.27827 13.9279 3.27252 13.9398 3.26045 13.9576C3.2547 13.9635 3.2547 13.9693 3.24876 13.9754C3.24282 13.9932 3.23688 14.0051 3.23075 14.0229C3.23075 14.0287 3.225 14.0287 3.225 14.0348L0.744458 21.4941C0.671692 21.7064 0.727009 21.9416 0.886834 22.0992C0.999139 22.21 1.15061 22.272 1.30821 22.2715C1.37262 22.2704 1.43648 22.2603 1.49811 22.2418L8.95161 19.7553C8.95736 19.7553 8.95736 19.7553 8.96349 19.7495C8.98224 19.744 9.00024 19.736 9.01676 19.7256C9.0214 19.725 9.02549 19.723 9.02883 19.7198C9.04646 19.708 9.07022 19.6959 9.08804 19.684C9.10568 19.6723 9.12368 19.6545 9.1415 19.6426C9.14744 19.6365 9.1532 19.6365 9.1532 19.6307C9.15932 19.6248 9.1712 19.619 9.17714 19.607L21.4076 7.37654C22.5648 6.2173 22.5648 4.34005 21.4076 3.18099L19.7995 1.57884ZM8.76171 18.3607L4.6315 14.2307L14.9689 3.89324L19.0991 8.02327L8.76171 18.3607ZM4.04974 15.3285L7.65797 18.9365L2.23987 20.7404L4.04974 15.3285ZM20.571 6.54567L19.9419 7.18071L15.8115 3.05031L16.4467 2.41546C17.1415 1.72122 18.2677 1.72122 18.9627 2.41546L20.5767 4.02949C21.2663 4.72745 21.2637 5.85106 20.571 6.54567Z" fill="black"/>
</g>
<defs>
<clipPath id="clip0_254_13232">
<rect width="23" height="23" fill="white"/>
</clipPath>
</defs>
</svg>
