<svg width="36" height="36" viewBox="0 0 36 36" fill="none" xmlns="http://www.w3.org/2000/svg">
<g clip-path="url(#clip0_96_2498)">
<path d="M28.4515 22.3004C27.7145 21.533 26.8256 21.1227 25.8834 21.1227C24.9488 21.1227 24.0523 21.5254 23.2849 22.2928L20.8839 24.6862C20.6863 24.5798 20.4888 24.4811 20.2988 24.3823C20.0253 24.2455 19.767 24.1164 19.5466 23.9796C17.2976 22.5512 15.2537 20.6896 13.2934 18.2811C12.3437 17.0806 11.7054 16.07 11.242 15.0443C11.865 14.4744 12.4424 13.8818 13.0047 13.3119C13.2174 13.0992 13.4302 12.8789 13.6429 12.6661C15.2385 11.0705 15.2385 9.00385 13.6429 7.40826L11.5687 5.334C11.3331 5.09846 11.09 4.85532 10.8621 4.61218C10.4062 4.1411 9.92749 3.65483 9.43362 3.19894C8.69661 2.46953 7.81524 2.08203 6.88828 2.08203C5.96131 2.08203 5.06474 2.46953 4.30494 3.19894C4.29734 3.20654 4.29734 3.20654 4.28974 3.21414L1.70641 5.82027C0.733858 6.79282 0.179201 7.97812 0.057632 9.35336C-0.124721 11.572 0.528711 13.6387 1.03018 14.9911C2.26107 18.3115 4.09979 21.3887 6.84269 24.6862C10.1706 28.66 14.1748 31.798 18.7488 34.009C20.4964 34.8372 22.829 35.8174 25.4351 35.9845C25.5947 35.9921 25.7618 35.9997 25.9138 35.9997C27.6689 35.9997 29.143 35.3691 30.2979 34.1154C30.3055 34.1002 30.3207 34.0926 30.3282 34.0774C30.7233 33.5987 31.1792 33.1656 31.6579 32.7022C31.9846 32.3906 32.3189 32.0639 32.6457 31.722C33.3979 30.9394 33.793 30.0276 33.793 29.0931C33.793 28.1509 33.3903 27.2468 32.6229 26.487L28.4515 22.3004ZM31.1716 30.3012C31.164 30.3012 31.164 30.3088 31.1716 30.3012C30.8753 30.6203 30.5714 30.909 30.2447 31.2281C29.7508 31.6992 29.2493 32.1931 28.7782 32.7477C28.0108 33.5683 27.1067 33.9558 25.9214 33.9558C25.8074 33.9558 25.6858 33.9558 25.5719 33.9482C23.3153 33.8039 21.2182 32.9225 19.6454 32.1703C15.3449 30.0884 11.5687 27.1328 8.43068 23.387C5.83975 20.2642 4.10739 17.3769 2.96009 14.2769C2.25347 12.385 1.99513 10.911 2.1091 9.52052C2.18509 8.63155 2.527 7.89454 3.15763 7.2639L5.74857 4.67296C6.12087 4.32345 6.51597 4.1335 6.90347 4.1335C7.38215 4.1335 7.76965 4.42223 8.01279 4.66537C8.02038 4.67297 8.02798 4.68056 8.03558 4.68816C8.49906 5.12125 8.93975 5.56953 9.40323 6.04821C9.63877 6.29135 9.88191 6.53449 10.125 6.78522L12.1993 8.85949C13.0047 9.66488 13.0047 10.4095 12.1993 11.2149C11.979 11.4352 11.7662 11.6556 11.5459 11.8683C10.9076 12.5217 10.2998 13.1296 9.63877 13.7222C9.62357 13.7374 9.60838 13.745 9.60078 13.7602C8.94735 14.4137 9.06891 15.0519 9.20568 15.485C9.21328 15.5078 9.22088 15.5306 9.22847 15.5534C9.76794 16.8602 10.5277 18.0911 11.6826 19.5575L11.6902 19.5651C13.7873 22.1485 15.9983 24.162 18.4373 25.7044C18.7488 25.9019 19.0679 26.0615 19.3719 26.2134C19.6454 26.3502 19.9037 26.4794 20.1241 26.6161C20.1545 26.6313 20.1849 26.6541 20.2152 26.6693C20.4736 26.7985 20.7167 26.8593 20.9675 26.8593C21.5981 26.8593 21.9932 26.4642 22.1224 26.335L24.7209 23.7365C24.9792 23.4781 25.3895 23.1666 25.8682 23.1666C26.3393 23.1666 26.7268 23.4629 26.9623 23.7213C26.9699 23.7289 26.9699 23.7289 26.9775 23.7365L31.164 27.923C31.9466 28.698 31.9466 29.4958 31.1716 30.3012Z" fill="black"/>
<path d="M19.4556 8.56411C21.4463 8.89842 23.2547 9.84058 24.6983 11.2842C26.1419 12.7278 27.0765 14.5362 27.4184 16.5269C27.502 17.0283 27.9351 17.3778 28.4289 17.3778C28.4897 17.3778 28.5429 17.3702 28.6037 17.3626C29.1659 17.2715 29.5382 16.7396 29.4471 16.1774C29.0368 13.7688 27.8971 11.5729 26.1571 9.83298C24.4172 8.09303 22.2213 6.95332 19.8127 6.54303C19.2505 6.45185 18.7262 6.82416 18.6275 7.37881C18.5287 7.93347 18.8934 8.47293 19.4556 8.56411Z" fill="black"/>
<path d="M35.9585 15.8804C35.2823 11.9142 33.4131 8.30511 30.5411 5.43304C27.669 2.56098 24.0599 0.691864 20.0938 0.0156379C19.5391 -0.0831367 19.0148 0.296766 18.9161 0.851423C18.8249 1.41368 19.1972 1.93794 19.7595 2.03672C23.3001 2.63696 26.5293 4.31613 29.0975 6.87667C31.6656 9.44481 33.3372 12.674 33.9374 16.2147C34.021 16.7161 34.4541 17.0657 34.9479 17.0657C35.0087 17.0657 35.0619 17.0581 35.1227 17.0505C35.6774 16.9669 36.0573 16.435 35.9585 15.8804Z" fill="black"/>
</g>
<defs>
<clipPath id="clip0_96_2498">
<rect width="36" height="36" fill="white"/>
</clipPath>
</defs>
</svg>
