<svg width="26" height="26" viewBox="0 0 26 26" fill="none" xmlns="http://www.w3.org/2000/svg">
<g clip-path="url(#clip0_87_3585)">
<path d="M24.9844 11.9844H14.0156V1.01562C14.0156 0.454695 13.5609 0 13 0C12.4391 0 11.9844 0.454695 11.9844 1.01562V11.9844H1.01562C0.454695 11.9844 0 12.4391 0 13C0 13.5609 0.454695 14.0156 1.01562 14.0156H11.9844V24.9844C11.9844 25.5453 12.4391 26 13 26C13.5609 26 14.0156 25.5453 14.0156 24.9844V14.0156H24.9844C25.5453 14.0156 26 13.5609 26 13C26 12.4391 25.5453 11.9844 24.9844 11.9844Z" fill="white"/>
</g>
<defs>
<clipPath id="clip0_87_3585">
<rect width="26" height="26" fill="white"/>
</clipPath>
</defs>
</svg>
