<svg width="63" height="63" viewBox="0 0 63 63" fill="none" xmlns="http://www.w3.org/2000/svg">
<mask id="mask0_229_2145" style="mask-type:luminance" maskUnits="userSpaceOnUse" x="0" y="0" width="63" height="63">
<path d="M0 3.8147e-06H63V63H0V3.8147e-06Z" fill="white"/>
</mask>
<g mask="url(#mask0_229_2145)">
<path d="M24.7767 24.3104C24.586 24.1873 24.3595 24.1172 24.1172 24.1172C23.438 24.1172 22.8867 24.6684 22.8867 25.3477C22.8867 25.67 23.0109 25.9641 23.214 26.1831C23.4392 26.4268 23.7602 26.5781 24.1172 26.5781C24.7963 26.5781 25.3477 26.0269 25.3477 25.3477C25.3477 24.9108 25.12 24.5282 24.7767 24.3104Z" fill="white"/>
<path d="M31.5 1.23047V9.35156" stroke="white" stroke-width="2" stroke-linecap="round" stroke-linejoin="round"/>
<path d="M31.5 53.6484V61.7695" stroke="white" stroke-width="2" stroke-linecap="round" stroke-linejoin="round"/>
<path d="M8.15723 10.617L13.3781 15.8379" stroke="white" stroke-width="2" stroke-linecap="round" stroke-linejoin="round"/>
<path d="M49.6221 48.3924L54.8429 53.6133" stroke="white" stroke-width="2" stroke-linecap="round" stroke-linejoin="round"/>
<path d="M54.8429 10.617L49.6221 15.8379" stroke="white" stroke-width="2" stroke-linecap="round" stroke-linejoin="round"/>
<path d="M13.3781 48.3924L8.15723 53.6133" stroke="white" stroke-width="2" stroke-linecap="round" stroke-linejoin="round"/>
<path d="M58.5703 31.5C58.5703 31.5 47.8099 47.4961 31.5 47.4961C15.1901 47.4961 4.42969 31.5 4.42969 31.5C4.42969 31.5 15.1901 15.5039 31.5 15.5039C47.8099 15.5039 58.5703 31.5 58.5703 31.5Z" stroke="white" stroke-width="2" stroke-linecap="round" stroke-linejoin="round"/>
<path d="M27.9821 22.3035C28.0263 22.2863 28.0707 22.2703 28.115 22.2543C28.1641 22.2358 28.2134 22.2186 28.2626 22.2013C28.3069 22.1854 28.3512 22.1706 28.3968 22.1558C28.4546 22.1361 28.5149 22.1164 28.5739 22.098C28.6502 22.0746 28.7265 22.0512 28.804 22.0303C28.8791 22.0082 28.9554 21.9872 29.0329 21.9676C29.1141 21.9466 29.1952 21.927 29.2765 21.9085C29.3528 21.8913 29.4279 21.874 29.5042 21.8593C29.5657 21.8457 29.6272 21.8334 29.69 21.8224C29.7441 21.8125 29.7983 21.8027 29.8524 21.7941C29.8818 21.7879 29.9126 21.783 29.9433 21.7793C29.9988 21.7695 30.0542 21.7621 30.1096 21.7547C30.1243 21.7522 30.1379 21.7498 30.1526 21.7485C30.1994 21.7412 30.2474 21.735 30.2954 21.7288C30.347 21.7227 30.3987 21.7165 30.4504 21.7116L30.5242 21.7042C30.5771 21.6981 30.6313 21.6932 30.6842 21.6895C30.7124 21.687 30.7408 21.6846 30.769 21.6833C30.8047 21.6796 30.8417 21.6772 30.8774 21.6759C30.9303 21.6722 30.9843 21.6698 31.0373 21.6673C31.1062 21.6636 31.1752 21.6612 31.2453 21.6599C31.329 21.6575 31.415 21.6563 31.5 21.6563C36.9362 21.6563 41.3437 26.0638 41.3437 31.5C41.3437 33.1993 40.9131 34.7977 40.1551 36.1918C40.0801 36.3296 40.0024 36.4662 39.9213 36.5991C39.8794 36.6692 39.8364 36.7369 39.792 36.8058C39.7134 36.9288 39.6322 37.0494 39.5485 37.1688C39.5399 37.1811 39.5311 37.1921 39.5227 37.2045C39.343 37.4579 39.1511 37.7028 38.9467 37.9366C38.7929 38.115 38.6318 38.2885 38.4643 38.4558C38.3131 38.6072 38.1567 38.7548 37.9956 38.8951C37.3201 39.4894 36.5634 39.9927 35.7427 40.384C35.6073 40.4492 35.4706 40.5107 35.3316 40.5698C35.0376 40.6941 34.7349 40.8048 34.4273 40.9008C34.1184 40.9968 33.8047 41.078 33.4835 41.1432C32.8424 41.2748 32.1791 41.3438 31.5 41.3438C26.0638 41.3438 21.6562 36.9362 21.6562 31.5C21.6562 31.4151 21.6575 31.3302 21.6599 31.2465C21.6612 31.1776 21.6635 31.1099 21.6673 31.041C21.6698 30.9771 21.6734 30.9131 21.6772 30.8503C21.6784 30.8319 21.6796 30.8134 21.6809 30.7949C21.6858 30.7359 21.6893 30.6768 21.6956 30.6178C21.6969 30.603 21.6981 30.5895 21.6992 30.5747C21.7055 30.5046 21.7129 30.4344 21.7215 30.3655V30.363C21.73 30.2892 21.7387 30.2154 21.7498 30.1416C21.7571 30.0862 21.7645 30.0308 21.7744 29.9754C21.7842 29.9016 21.7964 29.8303 21.8101 29.7577C21.8124 29.738 21.8162 29.7195 21.8199 29.6998" stroke="white" stroke-width="2" stroke-linecap="round" stroke-linejoin="round"/>
<path d="M31.5 35.1914C29.4648 35.1914 27.8086 33.5352 27.8086 31.5C27.8086 29.4648 29.4648 27.8086 31.5 27.8086C33.5352 27.8086 35.1914 29.4648 35.1914 31.5C35.1914 33.5352 33.5352 35.1914 31.5 35.1914Z" stroke="white" stroke-width="2" stroke-linecap="round" stroke-linejoin="round"/>
</g>
</svg>
