<svg width="62" height="62" viewBox="0 0 62 62" fill="none" xmlns="http://www.w3.org/2000/svg">
<g clip-path="url(#clip0_229_2120)">
<path d="M52.9598 22.6318L51.7438 23.8487C51.58 24.011 51.4174 24.1528 51.2557 24.2835C52.6556 27.4192 53.4419 30.888 53.4419 34.5384C53.4419 48.454 42.1201 59.7749 28.2038 59.7749C14.2868 59.7749 2.96508 48.454 2.96508 34.5384C2.96508 20.6242 14.2869 9.30406 28.2038 9.30406C31.1026 9.30406 33.8853 9.80176 36.4806 10.7046V10.7038C36.7279 10.311 37.0166 9.9197 37.4117 9.52166L38.0363 8.89621C34.9824 7.72451 31.6696 7.07617 28.2046 7.07617C13.0376 7.07714 0.738281 19.3727 0.738281 34.5375C0.738281 49.7046 13.0376 62.0002 28.204 62.0002C43.3726 62.0002 55.6689 49.7045 55.6689 34.5375C55.6688 30.2728 54.6965 26.2334 52.9598 22.6318Z" fill="white"/>
<path d="M45.0373 25.9845H42.5409C43.8108 28.3066 44.5338 30.9677 44.5338 33.7947C44.5338 42.7988 37.208 50.1239 28.2038 50.1239C19.199 50.1239 11.8732 42.7987 11.8732 33.7947C11.873 24.7919 19.1989 17.4669 28.2038 17.4669C30.7349 17.4669 33.1345 18.0457 35.2748 19.0788V16.6394C33.0951 15.7401 30.7075 15.2402 28.2038 15.2402C17.9541 15.2402 9.64551 23.5481 9.64551 33.7949C9.64551 44.0416 17.954 52.3509 28.2038 52.3509C38.4512 52.3509 46.7613 44.0416 46.7613 33.7949C46.7614 31.0038 46.1404 28.3591 45.0373 25.9845Z" fill="white"/>
<path d="M61.0886 9.1782C60.9151 8.84144 60.6345 8.60604 60.3569 8.46411C60.0771 8.32086 59.7913 8.25365 59.499 8.2235L54.1983 7.6948C54.0905 7.68669 53.9207 7.6121 53.7878 7.47635C53.652 7.34339 53.5774 7.17361 53.57 7.06584L53.0391 1.76314C52.9977 1.37551 52.8951 0.990071 52.625 0.63127C52.4906 0.453988 52.3067 0.288695 52.0844 0.173534C51.8628 0.0583739 51.6074 -0.000719945 51.3668 6.61934e-06C51.0574 0.000854277 50.7828 0.0877998 50.5517 0.206714C50.3205 0.327808 50.1243 0.482808 49.947 0.659242L39.2484 11.3578C38.8136 11.7986 38.5042 12.3287 38.2664 12.8957C38.0346 13.4649 37.8773 14.0594 37.8728 14.6788V20.7886C37.8743 21.2072 37.9822 21.5971 38.1586 21.9471L33.5551 26.6879C32.0636 25.5642 30.2157 24.8886 28.2043 24.8886C23.2839 24.8886 19.2969 28.877 19.2969 33.7952C19.2969 38.7133 23.2839 42.7017 28.2043 42.7017C33.1224 42.7017 37.1117 38.7133 37.1117 33.7952C37.1117 31.6909 36.3772 29.7601 35.1559 28.2355L39.9241 23.3262C40.1014 23.3639 40.2831 23.386 40.472 23.3868H46.5854C47.2048 23.3824 47.7993 23.2258 48.3677 22.9939C48.9355 22.7554 49.4655 22.4461 49.907 22.0113L60.6034 11.3156C60.7798 11.1384 60.9341 10.9421 61.0553 10.7103C61.1742 10.4791 61.262 10.2046 61.262 9.89593C61.2643 9.65592 61.2052 9.39981 61.0886 9.1782ZM28.2043 40.4759C24.52 40.4759 21.5229 37.4797 21.5229 33.796C21.5229 30.1132 24.5199 27.1161 28.2043 27.1161C29.6095 27.1161 30.9133 27.5547 31.9904 28.2988L27.4053 33.0212C26.977 33.462 26.9874 34.1672 27.4283 34.5953C27.8691 35.0237 28.575 35.0132 29.0033 34.5723L33.5855 29.8543C34.3983 30.9605 34.8848 32.3205 34.8848 33.7958C34.8848 37.4797 31.8879 40.4759 28.2043 40.4759ZM40.1012 19.9493V14.6797C40.0968 14.4833 40.1772 14.0986 40.3257 13.7487C40.4668 13.3972 40.6823 13.0686 40.8248 12.9327L50.9121 2.84632L51.3559 7.2889C51.3869 7.58788 51.4725 7.86482 51.5862 8.12396L40.1012 19.9493ZM48.3329 20.438C48.1956 20.5798 47.8684 20.7946 47.517 20.9372C47.167 21.0856 46.7824 21.166 46.5859 21.1617H42.0273L53.1682 9.68934C53.4207 9.79724 53.6872 9.8791 53.9773 9.9101L58.4177 10.3531L48.3329 20.438Z" fill="white"/>
</g>
<defs>
<clipPath id="clip0_229_2120">
<rect width="62" height="62" fill="white"/>
</clipPath>
</defs>
</svg>
