<svg width="31" height="31" viewBox="0 0 31 31" fill="none" xmlns="http://www.w3.org/2000/svg">
<path d="M24.8354 4.11255H6.16457C2.76533 4.11255 0 6.88673 0 10.2961V20.7039C0 24.1139 2.76533 26.8874 6.16457 26.8874H24.8354C28.2347 26.8874 31 24.1132 31 20.7039V10.2961C31 6.88673 28.2347 4.11255 24.8354 4.11255ZM29.7347 20.7045C29.7347 23.4167 27.5369 25.6228 24.8354 25.6228H6.16457C3.46314 25.6228 1.26531 23.4161 1.26531 20.7045V10.2961C1.26531 7.58455 3.46314 5.37785 6.16457 5.37785H24.8354C27.5369 5.37785 29.7347 7.58455 29.7347 10.2961V20.7045Z" fill="black"/>
<path d="M21.1052 15.2713L12.3398 10.1373C12.145 10.0234 11.9027 10.0215 11.7059 10.1341C11.5092 10.2468 11.3877 10.4562 11.3877 10.6833V20.9506C11.3877 21.1771 11.5092 21.3871 11.7053 21.4998C11.8027 21.5554 11.9115 21.5833 12.0203 21.5833C12.1311 21.5833 12.2411 21.5542 12.3398 21.4966L21.1052 16.3639C21.2988 16.2506 21.4184 16.0425 21.4184 15.8179C21.4184 15.5933 21.2995 15.3845 21.1052 15.2713ZM12.653 19.8466V11.7866L19.5337 15.8173L12.653 19.8466Z" fill="black"/>
</svg>
